<svg width="23" height="29" viewBox="0 0 23 29" fill="none" xmlns="http://www.w3.org/2000/svg">
<path d="M11.4815 0C5.33803 0 0.214111 4.52938 0.214111 10.3125C0.214111 12.5126 0.936451 14.4745 2.32275 16.3129L10.6192 28.1616C11.0217 28.7376 11.9421 28.7365 12.3437 28.1616L20.6762 16.2726C22.0326 14.5175 22.7488 12.4567 22.7488 10.3125C22.7488 4.62619 17.6943 0 11.4815 0ZM11.4815 15C8.6576 15 6.35994 12.8971 6.35994 10.3125C6.35994 7.72794 8.6576 5.625 11.4815 5.625C14.3053 5.625 16.603 7.72794 16.603 10.3125C16.603 12.8971 14.3053 15 11.4815 15Z" fill="#CD06FF"/>
</svg>
