<svg width="48" height="41" viewBox="0 0 48 41" fill="none" xmlns="http://www.w3.org/2000/svg">
<path fill-rule="evenodd" clip-rule="evenodd" d="M42.7441 0.669189C46.1583 5.04945 48.0085 10.4463 47.9999 15.9999C47.9999 29.8051 36.805 40.9999 23.0006 40.9999C13.2871 40.9999 4.86597 35.4576 0.727509 27.3647H11.6237C16.816 27.3647 20.4429 24.566 20.4429 20.0923C20.4429 10.6108 9.50507 14.4737 9.50507 11.1089C9.50507 9.48777 10.8057 8.89803 13.1858 8.89803H20.7692C22.8711 8.89803 25.3435 9.27495 25.3435 11.5685V19.1243C25.3435 24.5955 29.6159 27.364 34.0441 27.364C38.548 27.364 42.7435 24.5955 42.7435 19.1243V0.669189H42.7441Z" fill="white"/>
</svg>
